# Blender v3.3.0 OBJ File: ''
# www.blender.org
mtllib torus.mtl
o Torus
v 1.400000 0.000000 0.000000
v 1.282843 0.282843 0.000000
v 1.000000 0.400000 0.000000
v 0.717157 0.282843 0.000000
v 0.600000 0.000000 0.000000
v 0.717157 -0.282843 0.000000
v 1.000000 -0.400000 0.000000
v 1.282843 -0.282843 0.000000
v 1.352296 0.000000 -0.362347
v 1.239131 0.282843 -0.332024
v 0.965926 0.400000 -0.258819
v 0.692721 0.282843 -0.185614
v 0.579556 0.000000 -0.155291
v 0.692721 -0.282843 -0.185614
v 0.965926 -0.400000 -0.258819
v 1.239131 -0.282843 -0.332024
v 1.212435 0.000000 -0.700000
v 1.110974 0.282843 -0.641422
v 0.866025 0.400000 -0.500000
v 0.621076 0.282843 -0.358579
v 0.519615 0.000000 -0.300000
v 0.621076 -0.282843 -0.358579
v 0.866025 -0.400000 -0.500000
v 1.110974 -0.282843 -0.641422
v 0.989949 0.000000 -0.989950
v 0.907107 0.282843 -0.907107
v 0.707107 0.400000 -0.707107
v 0.507107 0.282843 -0.507107
v 0.424264 0.000000 -0.424264
v 0.507107 -0.282843 -0.507107
v 0.707107 -0.400000 -0.707107
v 0.907107 -0.282843 -0.907107
v 0.700000 0.000000 -1.212436
v 0.641421 0.282843 -1.110974
v 0.500000 0.400000 -0.866025
v 0.358579 0.282843 -0.621076
v 0.300000 0.000000 -0.519615
v 0.358579 -0.282843 -0.621076
v 0.500000 -0.400000 -0.866025
v 0.641421 -0.282843 -1.110974
v 0.362347 0.000000 -1.352296
v 0.332024 0.282843 -1.239131
v 0.258819 0.400000 -0.965926
v 0.185614 0.282843 -0.692721
v 0.155291 0.000000 -0.579556
v 0.185614 -0.282843 -0.692721
v 0.258819 -0.400000 -0.965926
v 0.332024 -0.282843 -1.239131
v 0.000000 0.000000 -1.400000
v 0.000000 0.282843 -1.282843
v 0.000000 0.400000 -1.000000
v 0.000000 0.282843 -0.717157
v 0.000000 0.000000 -0.600000
v 0.000000 -0.282843 -0.717157
v 0.000000 -0.400000 -1.000000
v 0.000000 -0.282843 -1.282843
v -0.362347 0.000000 -1.352296
v -0.332024 0.282843 -1.239131
v -0.258819 0.400000 -0.965926
v -0.185614 0.282843 -0.692721
v -0.155291 0.000000 -0.579556
v -0.185614 -0.282843 -0.692721
v -0.258819 -0.400000 -0.965926
v -0.332024 -0.282843 -1.239131
v -0.700000 0.000000 -1.212436
v -0.641421 0.282843 -1.110975
v -0.500000 0.400000 -0.866026
v -0.358579 0.282843 -0.621077
v -0.300000 0.000000 -0.519615
v -0.358579 -0.282843 -0.621077
v -0.500000 -0.400000 -0.866026
v -0.641421 -0.282843 -1.110975
v -0.989950 0.000000 -0.989949
v -0.907107 0.282843 -0.907107
v -0.707107 0.400000 -0.707107
v -0.507107 0.282843 -0.507107
v -0.424264 0.000000 -0.424264
v -0.507107 -0.282843 -0.507107
v -0.707107 -0.400000 -0.707107
v -0.907107 -0.282843 -0.907107
v -1.212435 0.000000 -0.700000
v -1.110974 0.282843 -0.641422
v -0.866025 0.400000 -0.500000
v -0.621076 0.282843 -0.358579
v -0.519615 0.000000 -0.300000
v -0.621076 -0.282843 -0.358579
v -0.866025 -0.400000 -0.500000
v -1.110974 -0.282843 -0.641422
v -1.352296 0.000000 -0.362347
v -1.239131 0.282843 -0.332024
v -0.965926 0.400000 -0.258819
v -0.692721 0.282843 -0.185614
v -0.579556 0.000000 -0.155291
v -0.692721 -0.282843 -0.185614
v -0.965926 -0.400000 -0.258819
v -1.239131 -0.282843 -0.332024
v -1.400000 0.000000 -0.000000
v -1.282843 0.282843 -0.000000
v -1.000000 0.400000 -0.000000
v -0.717157 0.282843 -0.000000
v -0.600000 0.000000 -0.000000
v -0.717157 -0.282843 -0.000000
v -1.000000 -0.400000 -0.000000
v -1.282843 -0.282843 -0.000000
v -1.352296 0.000000 0.362347
v -1.239131 0.282843 0.332024
v -0.965926 0.400000 0.258819
v -0.692721 0.282843 0.185614
v -0.579556 0.000000 0.155291
v -0.692721 -0.282843 0.185614
v -0.965926 -0.400000 0.258819
v -1.239131 -0.282843 0.332024
v -1.212436 0.000000 0.700000
v -1.110975 0.282843 0.641421
v -0.866026 0.400000 0.500000
v -0.621077 0.282843 0.358579
v -0.519615 0.000000 0.300000
v -0.621077 -0.282843 0.358579
v -0.866026 -0.400000 0.500000
v -1.110975 -0.282843 0.641421
v -0.989950 0.000000 0.989949
v -0.907107 0.282843 0.907107
v -0.707107 0.400000 0.707107
v -0.507107 0.282843 0.507107
v -0.424264 0.000000 0.424264
v -0.507107 -0.282843 0.507107
v -0.707107 -0.400000 0.707107
v -0.907107 -0.282843 0.907107
v -0.700000 0.000000 1.212436
v -0.641421 0.282843 1.110975
v -0.500000 0.400000 0.866026
v -0.358579 0.282843 0.621077
v -0.300000 0.000000 0.519615
v -0.358579 -0.282843 0.621077
v -0.500000 -0.400000 0.866026
v -0.641421 -0.282843 1.110975
v -0.362347 0.000000 1.352296
v -0.332025 0.282843 1.239131
v -0.258819 0.400000 0.965926
v -0.185614 0.282843 0.692721
v -0.155292 0.000000 0.579555
v -0.185614 -0.282843 0.692721
v -0.258819 -0.400000 0.965926
v -0.332025 -0.282843 1.239131
v 0.000000 0.000000 1.400000
v 0.000000 0.282843 1.282843
v 0.000000 0.400000 1.000000
v 0.000000 0.282843 0.717157
v 0.000000 0.000000 0.600000
v 0.000000 -0.282843 0.717157
v 0.000000 -0.400000 1.000000
v 0.000000 -0.282843 1.282843
v 0.362346 0.000000 1.352296
v 0.332024 0.282843 1.239131
v 0.258819 0.400000 0.965926
v 0.185614 0.282843 0.692721
v 0.155291 0.000000 0.579556
v 0.185614 -0.282843 0.692721
v 0.258819 -0.400000 0.965926
v 0.332024 -0.282843 1.239131
v 0.700000 0.000000 1.212436
v 0.641421 0.282843 1.110974
v 0.500000 0.400000 0.866025
v 0.358579 0.282843 0.621076
v 0.300000 0.000000 0.519615
v 0.358579 -0.282843 0.621076
v 0.500000 -0.400000 0.866025
v 0.641421 -0.282843 1.110974
v 0.989949 0.000000 0.989950
v 0.907106 0.282843 0.907107
v 0.707106 0.400000 0.707107
v 0.507107 0.282843 0.507107
v 0.424264 0.000000 0.424264
v 0.507107 -0.282843 0.507107
v 0.707106 -0.400000 0.707107
v 0.907106 -0.282843 0.907107
v 1.212435 0.000000 0.700000
v 1.110974 0.282843 0.641422
v 0.866025 0.400000 0.500000
v 0.621076 0.282843 0.358579
v 0.519615 0.000000 0.300000
v 0.621076 -0.282843 0.358579
v 0.866025 -0.400000 0.500000
v 1.110974 -0.282843 0.641422
v 1.352296 0.000000 0.362346
v 1.239131 0.282843 0.332024
v 0.965926 0.400000 0.258819
v 0.692721 0.282843 0.185614
v 0.579556 0.000000 0.155291
v 0.692721 -0.282843 0.185614
v 0.965926 -0.400000 0.258819
v 1.239131 -0.282843 0.332024
vt 0.500000 0.500000
vt 0.541667 0.500000
vt 0.541667 0.625000
vt 0.500000 0.625000
vt 0.541667 0.750000
vt 0.500000 0.750000
vt 0.541667 0.875000
vt 0.500000 0.875000
vt 0.541667 1.000000
vt 0.500000 1.000000
vt 0.500000 0.000000
vt 0.541667 0.000000
vt 0.541667 0.125000
vt 0.500000 0.125000
vt 0.541667 0.250000
vt 0.500000 0.250000
vt 0.541667 0.375000
vt 0.500000 0.375000
vt 0.583333 0.500000
vt 0.583333 0.625000
vt 0.583333 0.750000
vt 0.583333 0.875000
vt 0.583333 1.000000
vt 0.583333 0.000000
vt 0.583333 0.125000
vt 0.583333 0.250000
vt 0.583333 0.375000
vt 0.625000 0.500000
vt 0.625000 0.625000
vt 0.625000 0.750000
vt 0.625000 0.875000
vt 0.625000 1.000000
vt 0.625000 0.000000
vt 0.625000 0.125000
vt 0.625000 0.250000
vt 0.625000 0.375000
vt 0.666667 0.500000
vt 0.666667 0.625000
vt 0.666667 0.750000
vt 0.666667 0.875000
vt 0.666667 1.000000
vt 0.666667 0.000000
vt 0.666667 0.125000
vt 0.666667 0.250000
vt 0.666667 0.375000
vt 0.708333 0.500000
vt 0.708333 0.625000
vt 0.708333 0.750000
vt 0.708333 0.875000
vt 0.708333 1.000000
vt 0.708333 0.000000
vt 0.708333 0.125000
vt 0.708333 0.250000
vt 0.708333 0.375000
vt 0.750000 0.500000
vt 0.750000 0.625000
vt 0.750000 0.750000
vt 0.750000 0.875000
vt 0.750000 1.000000
vt 0.750000 0.000000
vt 0.750000 0.125000
vt 0.750000 0.250000
vt 0.750000 0.375000
vt 0.791667 0.500000
vt 0.791667 0.625000
vt 0.791667 0.750000
vt 0.791667 0.875000
vt 0.791667 1.000000
vt 0.791667 0.000000
vt 0.791667 0.125000
vt 0.791667 0.250000
vt 0.791667 0.375000
vt 0.833333 0.500000
vt 0.833333 0.625000
vt 0.833333 0.750000
vt 0.833333 0.875000
vt 0.833333 1.000000
vt 0.833333 0.000000
vt 0.833333 0.125000
vt 0.833333 0.250000
vt 0.833333 0.375000
vt 0.875000 0.500000
vt 0.875000 0.625000
vt 0.875000 0.750000
vt 0.875000 0.875000
vt 0.875000 1.000000
vt 0.875000 0.000000
vt 0.875000 0.125000
vt 0.875000 0.250000
vt 0.875000 0.375000
vt 0.916667 0.500000
vt 0.916667 0.625000
vt 0.916667 0.750000
vt 0.916667 0.875000
vt 0.916667 1.000000
vt 0.916667 0.000000
vt 0.916667 0.125000
vt 0.916667 0.250000
vt 0.916667 0.375000
vt 0.958333 0.500000
vt 0.958333 0.625000
vt 0.958333 0.750000
vt 0.958333 0.875000
vt 0.958333 1.000000
vt 0.958333 0.000000
vt 0.958333 0.125000
vt 0.958333 0.250000
vt 0.958333 0.375000
vt 1.000000 0.500000
vt 1.000000 0.625000
vt 1.000000 0.750000
vt 1.000000 0.875000
vt 1.000000 1.000000
vt 1.000000 0.000000
vt 1.000000 0.125000
vt 1.000000 0.250000
vt 1.000000 0.375000
vt -0.000000 0.500000
vt 0.041667 0.500000
vt 0.041667 0.625000
vt -0.000000 0.625000
vt 0.041667 0.750000
vt -0.000000 0.750000
vt 0.041667 0.875000
vt -0.000000 0.875000
vt 0.041667 1.000000
vt -0.000000 1.000000
vt -0.000000 0.000000
vt 0.041667 0.000000
vt 0.041667 0.125000
vt -0.000000 0.125000
vt 0.041667 0.250000
vt -0.000000 0.250000
vt 0.041667 0.375000
vt -0.000000 0.375000
vt 0.083333 0.500000
vt 0.083333 0.625000
vt 0.083333 0.750000
vt 0.083333 0.875000
vt 0.083333 1.000000
vt 0.083333 0.000000
vt 0.083333 0.125000
vt 0.083333 0.250000
vt 0.083333 0.375000
vt 0.125000 0.500000
vt 0.125000 0.625000
vt 0.125000 0.750000
vt 0.125000 0.875000
vt 0.125000 1.000000
vt 0.125000 0.000000
vt 0.125000 0.125000
vt 0.125000 0.250000
vt 0.125000 0.375000
vt 0.166667 0.500000
vt 0.166667 0.625000
vt 0.166667 0.750000
vt 0.166667 0.875000
vt 0.166667 1.000000
vt 0.166667 0.000000
vt 0.166667 0.125000
vt 0.166667 0.250000
vt 0.166667 0.375000
vt 0.208333 0.500000
vt 0.208333 0.625000
vt 0.208333 0.750000
vt 0.208333 0.875000
vt 0.208333 1.000000
vt 0.208333 0.000000
vt 0.208333 0.125000
vt 0.208333 0.250000
vt 0.208333 0.375000
vt 0.250000 0.500000
vt 0.250000 0.625000
vt 0.250000 0.750000
vt 0.250000 0.875000
vt 0.250000 1.000000
vt 0.250000 0.000000
vt 0.250000 0.125000
vt 0.250000 0.250000
vt 0.250000 0.375000
vt 0.291667 0.500000
vt 0.291667 0.625000
vt 0.291667 0.750000
vt 0.291667 0.875000
vt 0.291667 1.000000
vt 0.291667 0.000000
vt 0.291667 0.125000
vt 0.291667 0.250000
vt 0.291667 0.375000
vt 0.333333 0.500000
vt 0.333333 0.625000
vt 0.333333 0.750000
vt 0.333333 0.875000
vt 0.333333 1.000000
vt 0.333333 0.000000
vt 0.333333 0.125000
vt 0.333333 0.250000
vt 0.333333 0.375000
vt 0.375000 0.500000
vt 0.375000 0.625000
vt 0.375000 0.750000
vt 0.375000 0.875000
vt 0.375000 1.000000
vt 0.375000 0.000000
vt 0.375000 0.125000
vt 0.375000 0.250000
vt 0.375000 0.375000
vt 0.416667 0.500000
vt 0.416667 0.625000
vt 0.416667 0.750000
vt 0.416667 0.875000
vt 0.416667 1.000000
vt 0.416667 0.000000
vt 0.416667 0.125000
vt 0.416667 0.250000
vt 0.416667 0.375000
vt 0.458333 0.500000
vt 0.458333 0.625000
vt 0.458333 0.750000
vt 0.458333 0.875000
vt 0.458333 1.000000
vt 0.458333 0.000000
vt 0.458333 0.125000
vt 0.458333 0.250000
vt 0.458333 0.375000
vn 0.9171 0.3799 -0.1207
vn 0.3822 0.9227 -0.0503
vn -0.3822 0.9227 0.0503
vn -0.9171 0.3799 0.1207
vn -0.9171 -0.3799 0.1207
vn -0.3822 -0.9227 0.0503
vn 0.3822 -0.9227 -0.0503
vn 0.9171 -0.3799 -0.1207
vn 0.8546 0.3799 -0.3540
vn 0.3562 0.9227 -0.1475
vn -0.3562 0.9227 0.1475
vn -0.8546 0.3799 0.3540
vn -0.8546 -0.3799 0.3540
vn -0.3562 -0.9227 0.1475
vn 0.3562 -0.9227 -0.1475
vn 0.8546 -0.3799 -0.3540
vn 0.7339 0.3799 -0.5631
vn 0.3058 0.9227 -0.2347
vn -0.3058 0.9227 0.2347
vn -0.7339 0.3799 0.5631
vn -0.7339 -0.3799 0.5631
vn -0.3058 -0.9227 0.2347
vn 0.3058 -0.9227 -0.2347
vn 0.7339 -0.3799 -0.5631
vn 0.5631 0.3799 -0.7339
vn 0.2347 0.9227 -0.3058
vn -0.2347 0.9227 0.3058
vn -0.5631 0.3799 0.7339
vn -0.5631 -0.3799 0.7339
vn -0.2347 -0.9227 0.3058
vn 0.2347 -0.9227 -0.3058
vn 0.5631 -0.3799 -0.7339
vn 0.3540 0.3799 -0.8546
vn 0.1475 0.9227 -0.3562
vn -0.1475 0.9227 0.3562
vn -0.3540 0.3799 0.8546
vn -0.3540 -0.3799 0.8546
vn -0.1475 -0.9227 0.3562
vn 0.1475 -0.9227 -0.3562
vn 0.3540 -0.3799 -0.8546
vn 0.1207 0.3799 -0.9171
vn 0.0503 0.9227 -0.3822
vn -0.0503 0.9227 0.3822
vn -0.1207 0.3799 0.9171
vn -0.1207 -0.3799 0.9171
vn -0.0503 -0.9227 0.3822
vn 0.0503 -0.9227 -0.3822
vn 0.1207 -0.3799 -0.9171
vn -0.1207 0.3799 -0.9171
vn -0.0503 0.9227 -0.3822
vn 0.0503 0.9227 0.3822
vn 0.1207 0.3799 0.9171
vn 0.1207 -0.3799 0.9171
vn 0.0503 -0.9227 0.3822
vn -0.0503 -0.9227 -0.3822
vn -0.1207 -0.3799 -0.9171
vn -0.3540 0.3799 -0.8546
vn -0.1475 0.9227 -0.3562
vn 0.1475 0.9227 0.3562
vn 0.3540 0.3799 0.8546
vn 0.3540 -0.3799 0.8546
vn 0.1475 -0.9227 0.3562
vn -0.1475 -0.9227 -0.3562
vn -0.3540 -0.3799 -0.8546
vn -0.5631 0.3799 -0.7339
vn -0.2347 0.9227 -0.3058
vn 0.2347 0.9227 0.3058
vn 0.5631 0.3799 0.7339
vn 0.5631 -0.3799 0.7339
vn 0.2347 -0.9227 0.3058
vn -0.2347 -0.9227 -0.3058
vn -0.5631 -0.3799 -0.7339
vn -0.7339 0.3799 -0.5631
vn -0.3058 0.9227 -0.2347
vn 0.3058 0.9227 0.2347
vn 0.7339 0.3799 0.5631
vn 0.7339 -0.3799 0.5631
vn 0.3058 -0.9227 0.2347
vn -0.3058 -0.9227 -0.2347
vn -0.7339 -0.3799 -0.5631
vn -0.8546 0.3799 -0.3540
vn -0.3562 0.9227 -0.1475
vn 0.3562 0.9227 0.1475
vn 0.8546 0.3799 0.3540
vn 0.8546 -0.3799 0.3540
vn 0.3562 -0.9227 0.1475
vn -0.3562 -0.9227 -0.1475
vn -0.8546 -0.3799 -0.3540
vn -0.9171 0.3799 -0.1207
vn -0.3822 0.9227 -0.0503
vn 0.3822 0.9227 0.0503
vn 0.9171 0.3799 0.1207
vn 0.9171 -0.3799 0.1207
vn 0.3822 -0.9227 0.0503
vn -0.3822 -0.9227 -0.0503
vn -0.9171 -0.3799 -0.1207
usemtl None
s off
f 1/1/1 9/2/1 10/3/1 2/4/1
f 2/4/2 10/3/2 11/5/2 3/6/2
f 3/6/3 11/5/3 12/7/3 4/8/3
f 4/8/4 12/7/4 13/9/4 5/10/4
f 5/11/5 13/12/5 14/13/5 6/14/5
f 6/14/6 14/13/6 15/15/6 7/16/6
f 7/16/7 15/15/7 16/17/7 8/18/7
f 8/18/8 16/17/8 9/2/8 1/1/8
f 9/2/9 17/19/9 18/20/9 10/3/9
f 10/3/10 18/20/10 19/21/10 11/5/10
f 11/5/11 19/21/11 20/22/11 12/7/11
f 12/7/12 20/22/12 21/23/12 13/9/12
f 13/12/13 21/24/13 22/25/13 14/13/13
f 14/13/14 22/25/14 23/26/14 15/15/14
f 15/15/15 23/26/15 24/27/15 16/17/15
f 16/17/16 24/27/16 17/19/16 9/2/16
f 17/19/17 25/28/17 26/29/17 18/20/17
f 18/20/18 26/29/18 27/30/18 19/21/18
f 19/21/19 27/30/19 28/31/19 20/22/19
f 20/22/20 28/31/20 29/32/20 21/23/20
f 21/24/21 29/33/21 30/34/21 22/25/21
f 22/25/22 30/34/22 31/35/22 23/26/22
f 23/26/23 31/35/23 32/36/23 24/27/23
f 24/27/24 32/36/24 25/28/24 17/19/24
f 25/28/25 33/37/25 34/38/25 26/29/25
f 26/29/26 34/38/26 35/39/26 27/30/26
f 27/30/27 35/39/27 36/40/27 28/31/27
f 28/31/28 36/40/28 37/41/28 29/32/28
f 29/33/29 37/42/29 38/43/29 30/34/29
f 30/34/30 38/43/30 39/44/30 31/35/30
f 31/35/31 39/44/31 40/45/31 32/36/31
f 32/36/32 40/45/32 33/37/32 25/28/32
f 33/37/33 41/46/33 42/47/33 34/38/33
f 34/38/34 42/47/34 43/48/34 35/39/34
f 35/39/35 43/48/35 44/49/35 36/40/35
f 36/40/36 44/49/36 45/50/36 37/41/36
f 37/42/37 45/51/37 46/52/37 38/43/37
f 38/43/38 46/52/38 47/53/38 39/44/38
f 39/44/39 47/53/39 48/54/39 40/45/39
f 40/45/40 48/54/40 41/46/40 33/37/40
f 41/46/41 49/55/41 50/56/41 42/47/41
f 42/47/42 50/56/42 51/57/42 43/48/42
f 43/48/43 51/57/43 52/58/43 44/49/43
f 44/49/44 52/58/44 53/59/44 45/50/44
f 45/51/45 53/60/45 54/61/45 46/52/45
f 46/52/46 54/61/46 55/62/46 47/53/46
f 47/53/47 55/62/47 56/63/47 48/54/47
f 48/54/48 56/63/48 49/55/48 41/46/48
f 49/55/49 57/64/49 58/65/49 50/56/49
f 50/56/50 58/65/50 59/66/50 51/57/50
f 51/57/51 59/66/51 60/67/51 52/58/51
f 52/58/52 60/67/52 61/68/52 53/59/52
f 53/60/53 61/69/53 62/70/53 54/61/53
f 54/61/54 62/70/54 63/71/54 55/62/54
f 55/62/55 63/71/55 64/72/55 56/63/55
f 56/63/56 64/72/56 57/64/56 49/55/56
f 57/64/57 65/73/57 66/74/57 58/65/57
f 58/65/58 66/74/58 67/75/58 59/66/58
f 59/66/59 67/75/59 68/76/59 60/67/59
f 60/67/60 68/76/60 69/77/60 61/68/60
f 61/69/61 69/78/61 70/79/61 62/70/61
f 62/70/62 70/79/62 71/80/62 63/71/62
f 63/71/63 71/80/63 72/81/63 64/72/63
f 64/72/64 72/81/64 65/73/64 57/64/64
f 65/73/65 73/82/65 74/83/65 66/74/65
f 66/74/66 74/83/66 75/84/66 67/75/66
f 67/75/67 75/84/67 76/85/67 68/76/67
f 68/76/68 76/85/68 77/86/68 69/77/68
f 69/78/69 77/87/69 78/88/69 70/79/69
f 70/79/70 78/88/70 79/89/70 71/80/70
f 71/80/71 79/89/71 80/90/71 72/81/71
f 72/81/72 80/90/72 73/82/72 65/73/72
f 73/82/73 81/91/73 82/92/73 74/83/73
f 74/83/74 82/92/74 83/93/74 75/84/74
f 75/84/75 83/93/75 84/94/75 76/85/75
f 76/85/76 84/94/76 85/95/76 77/86/76
f 77/87/77 85/96/77 86/97/77 78/88/77
f 78/88/78 86/97/78 87/98/78 79/89/78
f 79/89/79 87/98/79 88/99/79 80/90/79
f 80/90/80 88/99/80 81/91/80 73/82/80
f 81/91/81 89/100/81 90/101/81 82/92/81
f 82/92/82 90/101/82 91/102/82 83/93/82
f 83/93/83 91/102/83 92/103/83 84/94/83
f 84/94/84 92/103/84 93/104/84 85/95/84
f 85/96/85 93/105/85 94/106/85 86/97/85
f 86/97/86 94/106/86 95/107/86 87/98/86
f 87/98/87 95/107/87 96/108/87 88/99/87
f 88/99/88 96/108/88 89/100/88 81/91/88
f 89/100/89 97/109/89 98/110/89 90/101/89
f 90/101/90 98/110/90 99/111/90 91/102/90
f 91/102/91 99/111/91 100/112/91 92/103/91
f 92/103/92 100/112/92 101/113/92 93/104/92
f 93/105/93 101/114/93 102/115/93 94/106/93
f 94/106/94 102/115/94 103/116/94 95/107/94
f 95/107/95 103/116/95 104/117/95 96/108/95
f 96/108/96 104/117/96 97/109/96 89/100/96
f 97/118/4 105/119/4 106/120/4 98/121/4
f 98/121/3 106/120/3 107/122/3 99/123/3
f 99/123/2 107/122/2 108/124/2 100/125/2
f 100/125/1 108/124/1 109/126/1 101/127/1
f 101/128/8 109/129/8 110/130/8 102/131/8
f 102/131/7 110/130/7 111/132/7 103/133/7
f 103/133/6 111/132/6 112/134/6 104/135/6
f 104/135/5 112/134/5 105/119/5 97/118/5
f 105/119/12 113/136/12 114/137/12 106/120/12
f 106/120/11 114/137/11 115/138/11 107/122/11
f 107/122/10 115/138/10 116/139/10 108/124/10
f 108/124/9 116/139/9 117/140/9 109/126/9
f 109/129/16 117/141/16 118/142/16 110/130/16
f 110/130/15 118/142/15 119/143/15 111/132/15
f 111/132/14 119/143/14 120/144/14 112/134/14
f 112/134/13 120/144/13 113/136/13 105/119/13
f 113/136/20 121/145/20 122/146/20 114/137/20
f 114/137/19 122/146/19 123/147/19 115/138/19
f 115/138/18 123/147/18 124/148/18 116/139/18
f 116/139/17 124/148/17 125/149/17 117/140/17
f 117/141/24 125/150/24 126/151/24 118/142/24
f 118/142/23 126/151/23 127/152/23 119/143/23
f 119/143/22 127/152/22 128/153/22 120/144/22
f 120/144/21 128/153/21 121/145/21 113/136/21
f 121/145/28 129/154/28 130/155/28 122/146/28
f 122/146/27 130/155/27 131/156/27 123/147/27
f 123/147/26 131/156/26 132/157/26 124/148/26
f 124/148/25 132/157/25 133/158/25 125/149/25
f 125/150/32 133/159/32 134/160/32 126/151/32
f 126/151/31 134/160/31 135/161/31 127/152/31
f 127/152/30 135/161/30 136/162/30 128/153/30
f 128/153/29 136/162/29 129/154/29 121/145/29
f 129/154/36 137/163/36 138/164/36 130/155/36
f 130/155/35 138/164/35 139/165/35 131/156/35
f 131/156/34 139/165/34 140/166/34 132/157/34
f 132/157/33 140/166/33 141/167/33 133/158/33
f 133/159/40 141/168/40 142/169/40 134/160/40
f 134/160/39 142/169/39 143/170/39 135/161/39
f 135/161/38 143/170/38 144/171/38 136/162/38
f 136/162/37 144/171/37 137/163/37 129/154/37
f 137/163/44 145/172/44 146/173/44 138/164/44
f 138/164/43 146/173/43 147/174/43 139/165/43
f 139/165/42 147/174/42 148/175/42 140/166/42
f 140/166/41 148/175/41 149/176/41 141/167/41
f 141/168/48 149/177/48 150/178/48 142/169/48
f 142/169/47 150/178/47 151/179/47 143/170/47
f 143/170/46 151/179/46 152/180/46 144/171/46
f 144/171/45 152/180/45 145/172/45 137/163/45
f 145/172/52 153/181/52 154/182/52 146/173/52
f 146/173/51 154/182/51 155/183/51 147/174/51
f 147/174/50 155/183/50 156/184/50 148/175/50
f 148/175/49 156/184/49 157/185/49 149/176/49
f 149/177/56 157/186/56 158/187/56 150/178/56
f 150/178/55 158/187/55 159/188/55 151/179/55
f 151/179/54 159/188/54 160/189/54 152/180/54
f 152/180/53 160/189/53 153/181/53 145/172/53
f 153/181/60 161/190/60 162/191/60 154/182/60
f 154/182/59 162/191/59 163/192/59 155/183/59
f 155/183/58 163/192/58 164/193/58 156/184/58
f 156/184/57 164/193/57 165/194/57 157/185/57
f 157/186/64 165/195/64 166/196/64 158/187/64
f 158/187/63 166/196/63 167/197/63 159/188/63
f 159/188/62 167/197/62 168/198/62 160/189/62
f 160/189/61 168/198/61 161/190/61 153/181/61
f 161/190/68 169/199/68 170/200/68 162/191/68
f 162/191/67 170/200/67 171/201/67 163/192/67
f 163/192/66 171/201/66 172/202/66 164/193/66
f 164/193/65 172/202/65 173/203/65 165/194/65
f 165/195/72 173/204/72 174/205/72 166/196/72
f 166/196/71 174/205/71 175/206/71 167/197/71
f 167/197/70 175/206/70 176/207/70 168/198/70
f 168/198/69 176/207/69 169/199/69 161/190/69
f 169/199/76 177/208/76 178/209/76 170/200/76
f 170/200/75 178/209/75 179/210/75 171/201/75
f 171/201/74 179/210/74 180/211/74 172/202/74
f 172/202/73 180/211/73 181/212/73 173/203/73
f 173/204/80 181/213/80 182/214/80 174/205/80
f 174/205/79 182/214/79 183/215/79 175/206/79
f 175/206/78 183/215/78 184/216/78 176/207/78
f 176/207/77 184/216/77 177/208/77 169/199/77
f 177/208/84 185/217/84 186/218/84 178/209/84
f 178/209/83 186/218/83 187/219/83 179/210/83
f 179/210/82 187/219/82 188/220/82 180/211/82
f 180/211/81 188/220/81 189/221/81 181/212/81
f 181/213/88 189/222/88 190/223/88 182/214/88
f 182/214/87 190/223/87 191/224/87 183/215/87
f 183/215/86 191/224/86 192/225/86 184/216/86
f 184/216/85 192/225/85 185/217/85 177/208/85
f 185/217/92 1/1/92 2/4/92 186/218/92
f 186/218/91 2/4/91 3/6/91 187/219/91
f 187/219/90 3/6/90 4/8/90 188/220/90
f 188/220/89 4/8/89 5/10/89 189/221/89
f 189/222/96 5/11/96 6/14/96 190/223/96
f 190/223/95 6/14/95 7/16/95 191/224/95
f 191/224/94 7/16/94 8/18/94 192/225/94
f 192/225/93 8/18/93 1/1/93 185/217/93
